HIERARCHY
ROOT Hips
{
	OFFSET 0.000000 8.830580 0.000000
	CHANNELS 6 Xposition Yposition Zposition Zrotation Yrotation Xrotation 
	JOINT Spine
	{
		OFFSET 0.000000 0.010000 0.000000
		CHANNELS 3 Zrotation Yrotation Xrotation
		JOINT Spine1
		{
			OFFSET 0.000000 2.459130 0.000000
			CHANNELS 3 Zrotation Yrotation Xrotation
			JOINT Neck
			{
				OFFSET 0.000000 2.484630 0.000000
				CHANNELS 3 Zrotation Yrotation Xrotation
				JOINT Head_virtual
				{
					OFFSET 0.000000 0.000000 0.000000
					CHANNELS 3 Zrotation Yrotation Xrotation
					JOINT Head
					{
						OFFSET 0.000000 0.927525 0.000000
						CHANNELS 3 Zrotation Yrotation Xrotation
						End Site
						{
							OFFSET 0.000000 0.000000 0.000000
						}
					}
				}
				JOINT LeftUpArm_virtual
				{
					OFFSET 0.000000 0.000000 0.000000
					CHANNELS 3 Zrotation Yrotation Xrotation
					JOINT LeftUpArm
					{
						OFFSET 1.248820 0.000000 0.000000
						CHANNELS 3 Zrotation Yrotation Xrotation
						JOINT LeftForeArm
						{
							OFFSET 2.597580 0.000000 0.000000
							CHANNELS 3 Zrotation Yrotation Xrotation
							JOINT LeftHand
							{
								OFFSET 2.455420 0.000000 0.000000
								CHANNELS 3 Zrotation Yrotation Xrotation
								End Site
								{
									OFFSET 0.000000 0.000000 0.000000
								}
							}
						}
					}
				}
				JOINT RightUpArm_virtual
				{
					OFFSET -0.000000 -0.000000 -0.000000
					CHANNELS 3 Zrotation Yrotation Xrotation
					JOINT RightUpArm
					{
						OFFSET -1.248820 -0.000000 -0.000000
						CHANNELS 3 Zrotation Yrotation Xrotation
						JOINT RightForeArm
						{
							OFFSET -2.597580 -0.000000 -0.000000
							CHANNELS 3 Zrotation Yrotation Xrotation
							JOINT RightHand
							{
								OFFSET -2.455420 -0.000000 -0.000000
								CHANNELS 3 Zrotation Yrotation Xrotation
								End Site
								{
									OFFSET 0.000000 0.000000 0.000000
								}
							}
						}
					}
				}
			}
		}
	}
	JOINT LeftUpLeg
	{
		OFFSET 1.271939 0.000000 0.000000
		CHANNELS 3 Zrotation Yrotation Xrotation
		JOINT LeftLowLeg
		{
			OFFSET 0.000000 -4.342910 0.000000
			CHANNELS 3 Zrotation Yrotation Xrotation
			JOINT LeftFoot
			{
				OFFSET 0.000000 -4.487670 0.000000
				CHANNELS 3 Zrotation Yrotation Xrotation
				JOINT LeftToeBase
				{
					OFFSET 0.000000 0.000000 1.515070
					CHANNELS 3 Zrotation Yrotation Xrotation
					End Site
					{
						OFFSET 0.000000 0.000000 0.000000
					}
				}
			}
		}
	}
	JOINT RightUpLeg
	{
		OFFSET -1.271939 0.000000 0.000000
		CHANNELS 3 Zrotation Yrotation Xrotation
		JOINT RightLowLeg
		{
			OFFSET 0.000000 -4.342910 0.000000
			CHANNELS 3 Zrotation Yrotation Xrotation
			JOINT RightFoot
			{
				OFFSET 0.000000 -4.487670 0.000000
				CHANNELS 3 Zrotation Yrotation Xrotation
				JOINT RightToeBase
				{
					OFFSET 0.000000 0.000000 1.515070
					CHANNELS 3 Zrotation Yrotation Xrotation
					End Site
					{
						OFFSET 0.000000 0.000000 0.000000
					}
				}
			}
		}
	}
}
MOTION
Frames: 9
Frame Time: 0.041667
-17.140102 8.917162 28.712834 -173.318654 -39.967706 -178.379103 4.976840 -1.595502 -15.063978 -4.407513 -7.354759 8.351476 0.000000 0.000000 0.000000 -4.752301 -33.888432 -2.542530 -29.158028 45.354755 -96.798393 -26.227699 -5.285320 13.515300 -49.701302 -29.214800 61.432201 0.000000 -83.627197 0.000000 -3.887320 11.076700 -6.330040 22.060301 -11.432200 -1.597780 52.610199 -11.008700 -27.229004 180.000000 48.669006 -180.000000 -7.182330 -18.178301 -12.727800 -3.310066 -25.549452 -9.921779 0.000000 0.000000 20.785500 5.310384 20.331880 -6.096974 0.000000 0.000000 -12.131060 -9.566673 29.630964 -30.583611 0.000000 0.000000 25.616199 13.781471 -15.476777 -0.379875 0.000000 0.000000 -19.816310 
-17.187777 8.909877 28.618142 -173.490656 -42.029572 -178.200818 4.952956 -1.566253 -15.349676 -4.488540 -7.261663 8.590467 0.000000 0.000000 0.000000 -4.065993 -35.209300 -1.963593 -28.832702 45.019625 -96.164026 -26.421000 -4.993830 13.423900 -49.491798 -29.288601 61.150299 0.000000 -83.380997 0.000000 -4.788650 10.920200 -3.492070 22.163700 -11.134600 -1.417040 52.458302 -10.642100 -27.313995 180.000000 48.634995 -180.000000 -6.693720 -17.734600 -12.756100 -3.389698 -26.735206 -9.473423 0.000000 0.000000 20.789101 5.308169 19.549094 -6.563472 0.000000 0.000000 -12.177370 -13.211013 33.473526 -32.355568 0.000000 0.000000 22.974300 12.326474 -15.352974 -0.318672 0.000000 0.000000 -20.041880 
-17.239217 8.902410 28.520508 -173.693299 -44.159498 -178.110399 4.945370 -1.432437 -15.535177 -4.611378 -7.094597 8.783264 0.000000 0.000000 0.000000 -3.272153 -36.625443 -1.526448 -28.488728 44.638180 -95.429323 -26.670200 -4.820130 13.488600 -49.120998 -29.506599 60.903801 0.000000 -83.347900 0.000000 -7.001940 11.517100 -8.333430 22.281601 -11.156300 -1.441660 52.300701 -10.346000 -27.286011 180.000000 48.701996 -180.000000 -6.115400 -17.075199 -13.430900 -3.521652 -27.677894 -8.843289 0.000000 0.000000 20.732201 5.133976 18.363513 -7.076143 0.000000 0.000000 -12.183370 -16.861928 36.919273 -34.066499 0.000000 0.000000 20.539000 11.759925 -14.978549 -0.624934 0.000000 0.000000 -19.791160 
-17.296337 8.895437 28.419809 -173.865925 -46.449077 -178.148383 5.405653 -0.824344 -15.386432 -5.599628 -6.965211 8.358795 0.000000 0.000000 0.000000 -2.277815 -38.324026 -0.541874 -28.409162 44.376556 -94.984856 -26.428699 -5.250360 13.879900 -48.887501 -29.031000 61.102100 0.000000 -83.239403 0.000000 -6.690160 10.987600 -10.394600 22.882799 -11.524300 -1.407070 52.043400 -10.422800 -27.066010 180.000000 48.496002 180.000000 -6.960880 -17.139900 -13.107700 -3.663156 -28.608212 -8.035708 0.000000 0.000000 20.605101 4.951219 17.053737 -7.623987 0.000000 0.000000 -12.162910 -20.165511 39.788805 -35.392406 0.000000 0.000000 18.315399 11.874719 -14.433734 -1.337008 0.000000 0.000000 -19.471370 
-17.357235 8.888850 28.314250 -173.881267 -48.975573 -178.440525 5.563667 -0.814930 -15.523910 -5.726135 -7.021306 8.534616 0.000000 0.000000 0.000000 -1.949288 -39.655219 0.096013 -27.943955 43.854105 -94.142739 -26.600201 -5.345580 14.025000 -48.597099 -28.991400 60.942299 0.000000 -83.191803 0.000000 -8.140020 11.215000 -11.475400 22.910299 -11.179400 -1.316540 52.107101 -10.647200 -27.143005 -180.000000 48.460007 -180.000000 -8.599720 -15.481000 -12.656700 -3.749939 -29.777466 -7.084215 0.000000 0.000000 20.577999 4.839326 15.825492 -8.216981 0.000000 0.000000 -11.997930 -22.479164 41.744383 -35.949190 0.000000 0.000000 16.321899 12.688883 -13.539264 -2.011008 0.000000 0.000000 -19.187730 
-17.420768 8.883053 28.202941 -173.762268 -51.756055 -178.840085 5.706184 -0.912143 -15.754948 -5.736207 -7.148863 8.742761 0.000000 0.000000 0.000000 -1.604603 -41.048542 0.623917 -27.656811 43.220800 -93.403040 -26.747700 -5.540360 13.956600 -48.508499 -28.736300 61.112598 0.000000 -83.016899 0.000000 -7.926900 11.059900 -9.691970 23.062000 -11.084600 -1.344160 52.021599 -10.583700 -27.143005 -180.000000 48.218994 -180.000000 -8.943460 -15.439700 -13.634100 -3.707689 -31.055891 -6.174370 0.000000 0.000000 20.605900 4.841513 14.500620 -8.732649 0.000000 0.000000 -12.165620 -23.806389 42.916146 -35.801970 0.000000 0.000000 14.788800 14.134378 -12.655239 -2.499253 0.000000 0.000000 -19.692770 
-17.486199 8.879114 28.081933 -173.360072 -54.581415 -179.667636 5.739868 -1.135445 -15.972920 -5.435049 -7.268739 9.133803 0.000000 0.000000 0.000000 -1.176182 -42.481553 1.046450 -27.678877 42.524487 -92.937277 -26.963900 -5.668130 13.876400 -48.464100 -28.658600 61.236900 0.000000 -82.799301 0.000000 -9.012740 11.015400 -10.857300 23.151400 -10.986700 -1.661900 51.911098 -10.629600 -27.007996 -180.000000 48.123001 -180.000000 -9.594010 -15.289900 -13.095000 -3.576940 -32.317232 -5.057655 0.000000 0.000000 20.731001 4.637651 13.052000 -9.420504 0.000000 0.000000 -12.154020 -23.342366 43.135679 -34.571139 0.000000 0.000000 14.069600 15.433153 -11.746326 -2.761268 0.000000 0.000000 -19.750680 
-17.555965 8.876351 27.951739 -172.626336 -57.507808 179.115553 5.723964 -1.617994 -16.276270 -4.909385 -7.560899 9.628259 0.000000 0.000000 0.000000 -1.141809 -43.576485 1.452401 -27.581782 41.833750 -92.387936 -27.190300 -5.559070 13.719100 -48.451099 -28.688299 61.515301 0.000000 -82.596298 0.000000 -8.301030 11.264300 -8.464390 23.023001 -10.570000 -1.660530 51.963600 -10.472900 -27.250000 -180.000000 48.181000 -180.000000 -9.393090 -14.870000 -13.934600 -3.355519 -33.811794 -3.863787 0.000000 0.000000 21.006800 4.376015 11.738718 -10.184401 0.000000 0.000000 -12.082420 -21.517306 42.593236 -32.629585 0.000000 0.000000 14.388600 16.966460 -10.364376 -2.521162 0.000000 0.000000 -19.561160 
-17.628146 8.872288 27.815556 -171.681031 -60.398516 178.030853 5.869189 -1.752839 -16.717351 -4.829354 -7.726664 9.642309 0.000000 0.000000 0.000000 -0.941513 -44.776602 2.180199 -27.801813 41.279139 -92.264931 -27.186800 -5.485230 13.798200 -48.512901 -28.807400 61.920898 0.000000 -82.343803 0.000000 -8.351820 11.382200 -9.413150 23.134300 -10.757500 -1.783540 52.060600 -10.304600 -27.424011 -180.000000 48.332993 -180.000000 -7.457150 -14.958400 -15.195600 -2.836736 -35.273145 -3.161588 0.000000 0.000000 21.446501 4.309520 10.521210 -10.945945 0.000000 0.000000 -12.108000 -19.286496 41.477560 -30.990763 0.000000 0.000000 15.988100 16.803244 -8.628655 -0.677468 0.000000 0.000000 -20.340540 
